<?xml version="1.0" encoding="utf-8"?>
<!-- Generator: Adobe Illustrator 26.5.1, SVG Export Plug-In . SVG Version: 6.00 Build 0)  -->
<svg version="1.1" id="Capa_1" xmlns="http://www.w3.org/2000/svg" xmlns:xlink="http://www.w3.org/1999/xlink" x="0px" y="0px"
	 viewBox="0 0 300 300" style="enable-background:new 0 0 300 300;" xml:space="preserve">
<g>
	<path d="M0,0v300h300V0H0z M251.1,150.2c0,0,0,32.9-4.2,48.6c-2.2,8.7-9.1,15.5-17.7,17.9c-15.9,4.1-79.2,4.1-79.2,4.1
		s-63.1,0-79.1-4.2c-8.6-2.4-15.5-9.2-17.9-17.9c-4.1-15.6-4.1-48.6-4.1-48.6s0-32.9,4.1-48.7c2.4-8.6,9.4-15.6,17.9-18
		c15.9-4.1,79.1-4.1,79.1-4.1s63.3,0,79.2,4.4c8.6,2.2,15.5,9.1,17.7,17.7C251.3,117.2,251.1,150.2,251.1,150.2z"/>
	<path d="M129.8,180.3v-60.6l52.6,30.4L129.8,180.3z"/>
	<polygon points="129.8,180.3 182.4,150.1 129.8,119.7 	"/>
</g>
</svg>
