<?xml version="1.0" encoding="utf-8"?>
<!-- Generator: Adobe Illustrator 26.5.1, SVG Export Plug-In . SVG Version: 6.00 Build 0)  -->
<svg version="1.1" id="Layer_1" xmlns="http://www.w3.org/2000/svg" xmlns:xlink="http://www.w3.org/1999/xlink" x="0px" y="0px"
	 viewBox="0 0 518 518" style="enable-background:new 0 0 518 518;" xml:space="preserve">
<g>
	<polygon points="262.6,229.4 168,97 117.5,97 234.7,261 249.5,281.7 349.8,422.1 400.2,422.1 277.3,250.1 	"/>
	<path d="M472.2,3H45.8C22.2,3,3,22.2,3,45.8v426.3C3,495.8,22.2,515,45.8,515h426.3c23.7,0,42.8-19.2,42.8-42.8V45.8
		C515,22.2,495.8,3,472.2,3z M334.3,445.2L232.8,300.6L105.7,445.2H72.8l145.4-165.3L72.8,72.8h110.9l96.1,136.9L400.3,72.8h32.8
		L294.5,230.5l150.7,214.7H334.3z"/>
</g>
</svg>
